<svg width="64" height="64" viewBox="0 0 64 64" fill="none" xmlns="http://www.w3.org/2000/svg">
<g clip-path="url(#clip0)">
<path d="M33.2724 62.7402C33.2724 63.4343 32.7068 64 32.0113 64C31.3172 64 30.7515 63.4343 30.7515 62.7402C30.7515 62.046 31.3172 61.4803 32.0113 61.4803C32.7068 61.4803 33.2724 62.046 33.2724 62.7402ZM5.5433 62.7402V61.1465C5.5433 52.7468 11.2403 48.1663 13.7348 46.6709C17.1226 44.6413 20.7616 43.1068 24.5669 42.0985V40.07C23.9325 39.51 23.3524 38.8732 22.8399 38.1634C21.3309 36.0734 20.0993 33.8075 19.171 31.4151C18.3215 31.299 17.5448 30.7584 17.1454 29.9127C16.7646 29.1065 14.1228 24.2196 13.718 23.3499C12.6919 21.1451 14.033 18.9668 15.7332 18.2656C16.0162 18.1488 16.3073 18.0625 16.6033 18.0132C16.3281 16.8871 16.189 15.7289 16.189 14.5513C16.189 6.52762 22.7166 0 30.7401 0C32.1502 0 33.4856 0.539339 34.5003 1.51861C34.5111 1.52907 34.5281 1.52907 34.539 1.51861C35.5539 0.539339 36.8892 0 38.2992 0C43.7524 0 48.189 4.43654 48.189 9.88976V12.1841C48.189 14.1596 47.9177 16.1043 47.3824 17.9893C47.6849 18.0383 47.9869 18.1173 48.2734 18.2469C50.3652 19.1942 51.1821 21.5351 50.2884 23.3313C49.8612 24.1899 47.2419 29.0875 46.861 29.894C46.4617 30.7393 45.6853 31.2799 44.8364 31.3963C43.9076 33.7945 42.6741 36.0658 41.1621 38.1604C40.6489 38.8711 40.0683 39.5088 39.4331 40.0694V42.0984C43.2383 43.1066 46.8773 44.6411 50.2652 46.6707C52.7597 48.1662 58.4567 52.7467 58.4567 61.1463V62.7402C58.4567 63.436 57.8927 64 57.1968 64H37.6831C37.6819 64 37.6819 64 37.6806 64C36.9586 64 36.3755 63.3894 36.4235 62.6559C36.4674 61.9863 37.0538 61.4803 37.7248 61.4803H55.937C55.937 56.1605 53.2674 51.4079 48.9688 48.8328C45.9342 47.0143 42.6843 45.6168 39.2888 44.6694C38.6098 48.0727 35.6001 50.6457 32 50.6457C28.4 50.6457 25.3902 48.0728 24.7112 44.6694C21.3164 45.6168 18.0656 47.0143 15.0312 48.8328C10.7326 51.4079 8.06298 56.0142 8.06298 61.4803H26.3433C27.0664 61.4803 27.6487 62.0941 27.599 62.8277C27.5535 63.4961 26.9674 64 26.2976 64H6.80314C6.10733 64 5.5433 63.436 5.5433 62.7402V62.7402ZM18.7132 14.7443C18.8295 14.6076 20.5679 12.4724 23.5599 12.4724C25.0523 12.4724 26.4858 12.9925 27.6209 13.9197C28.6666 14.7738 29.998 15.2441 31.3701 15.2441C34.6171 15.2441 37.2181 12.6326 37.2916 9.29877C37.3067 8.61405 37.8659 8.06677 38.5509 8.06665C39.2358 8.06652 39.7953 8.61354 39.8108 9.29827C39.8469 10.9071 40.7128 12.3021 42.0708 12.939C43.4064 13.5654 44.524 14.5136 45.3436 15.674C45.5603 14.5284 45.6694 13.3625 45.6694 12.1842V9.88976C45.6694 5.82589 42.3632 2.51969 38.2993 2.51969C37.5454 2.51969 36.8315 2.80806 36.2889 3.33165C35.2969 4.28939 33.7426 4.28926 32.7505 3.33165C32.208 2.80806 31.494 2.51969 30.7401 2.51969C24.1059 2.51969 18.6497 7.84756 18.7132 14.7443V14.7443ZM36.9134 41.7478C33.9304 43.1558 30.4841 43.3183 27.0866 41.7483V43.2126C27.0866 45.9219 29.2907 48.126 32 48.126C34.7093 48.126 36.9134 45.9219 36.9134 43.2126V41.7478ZM39.1191 36.6856C40.6818 34.5209 41.9207 32.1511 42.7985 29.6406C42.9526 29.2 43.5378 28.5334 44.5294 28.9236C44.9968 27.9279 47.6287 23.0613 48.0102 22.255C48.3008 21.6408 47.9493 20.8409 47.2888 20.5663C46.9158 20.4112 46.503 20.4383 46.1403 20.6236C45.3584 21.0231 44.3912 20.5517 44.2914 19.6874C44.0647 17.7255 42.7929 16.0607 41.0008 15.2203C40.095 14.7955 39.3224 14.1723 38.7206 13.4098C38.3415 14.0918 37.8494 14.7055 37.3091 15.2878C34.9179 17.8654 29.9191 19.0115 26.027 15.8714C24.5086 14.6463 22.2504 14.72 20.8572 16.1334C20.0993 16.9023 19.6535 17.9402 19.6535 19.0006V19.4966C19.6576 20.4219 18.6741 21.0396 17.8285 20.6226C17.4783 20.4499 17.0779 20.4422 16.7176 20.5853C16.1463 20.8121 15.6586 21.5517 15.9962 22.2739C16.3742 23.0822 19.0642 28.0217 19.4625 28.9238C20.572 28.5377 21.0927 29.3301 21.2079 29.6587C22.0865 32.1631 23.323 34.5284 24.8828 36.6886C26.5602 39.0118 29.1544 40.3442 31.9996 40.3439C34.846 40.3434 37.441 39.0101 39.1191 36.6856ZM59.0866 7.55906V1.25984C59.0866 0.564032 58.5226 0 57.8268 0H51.5275C50.8317 0 50.2677 0.564032 50.2677 1.25984C50.2677 1.95565 50.8317 2.51969 51.5275 2.51969H56.5669V7.55906C56.5669 8.25487 57.131 8.8189 57.8268 8.8189C58.5226 8.8189 59.0866 8.25487 59.0866 7.55906ZM59.0866 41.9528V35.6535C59.0866 34.9577 58.5226 34.3937 57.8268 34.3937C57.131 34.3937 56.5669 34.9577 56.5669 35.6535V40.6929H51.5275C50.8317 40.6929 50.2677 41.2569 50.2677 41.9528C50.2677 42.6486 50.8317 43.2126 51.5275 43.2126H57.8268C58.5226 43.2126 59.0866 42.6486 59.0866 41.9528ZM7.43306 7.55906V2.51969H12.4724C13.1682 2.51969 13.7323 1.95565 13.7323 1.25984C13.7323 0.564032 13.1682 0 12.4724 0H6.17322C5.47741 0 4.91338 0.564032 4.91338 1.25984V7.55906C4.91338 8.25487 5.47741 8.8189 6.17322 8.8189C6.86903 8.8189 7.43306 8.25487 7.43306 7.55906ZM13.7323 41.9528C13.7323 41.2569 13.1682 40.6929 12.4724 40.6929H7.43306V35.6535C7.43306 34.9577 6.86903 34.3937 6.17322 34.3937C5.47741 34.3937 4.91338 34.9577 4.91338 35.6535V41.9528C4.91338 42.6486 5.47741 43.2126 6.17322 43.2126H12.4724C13.1682 43.2126 13.7323 42.6486 13.7323 41.9528Z" fill="white"/>
</g>
<defs>
<clipPath id="clip0">
<rect width="64" height="64" fill="white"/>
</clipPath>
</defs>
</svg>
