<svg width="296" height="296" viewBox="0 0 296 296" fill="none" xmlns="http://www.w3.org/2000/svg">
<path d="M148 208.432C177.965 208.432 202.344 184.053 202.344 154.088V54.3436C202.344 24.3783 177.965 0 148 0C118.035 0 93.6562 24.3783 93.6562 54.3436V154.088C93.6562 184.053 118.035 208.432 148 208.432ZM148 11.5625C171.59 11.5625 190.781 30.7535 190.781 54.3436V102.122H105.219V54.3436C105.219 30.7535 124.41 11.5625 148 11.5625ZM105.219 113.685H190.781V154.088C190.781 177.678 171.59 196.869 148 196.869C124.41 196.869 105.219 177.678 105.219 154.088V113.685Z" fill="white"/>
<path d="M133.933 75.9149H162.067C165.26 75.9149 167.848 73.3269 167.848 70.1337C167.848 66.9404 165.26 64.3524 162.067 64.3524H133.933C130.74 64.3524 128.152 66.9404 128.152 70.1337C128.152 73.3269 130.74 75.9149 133.933 75.9149V75.9149Z" fill="white"/>
<path d="M133.933 54.3685H162.067C165.26 54.3685 167.848 51.7805 167.848 48.5872C167.848 45.394 165.26 42.806 162.067 42.806H133.933C130.74 42.806 128.152 45.394 128.152 48.5872C128.152 51.7805 130.74 54.3685 133.933 54.3685V54.3685Z" fill="white"/>
<path d="M222.018 148.307C218.827 148.307 216.237 150.895 216.237 154.088C216.237 191.714 185.626 222.325 148 222.325C110.374 222.325 79.7632 191.714 79.7632 154.088C79.7632 150.895 77.1752 148.307 73.9819 148.307C70.7887 148.307 68.2007 150.895 68.2007 154.088C68.2007 192.24 95.1174 224.219 130.954 232.049V261.276H130.5C114.541 261.276 101.558 274.259 101.558 290.218C101.558 293.411 104.146 295.999 107.339 295.999H188.661C191.854 295.999 194.442 293.411 194.442 290.218C194.442 274.261 181.459 261.276 165.5 261.276H165.046V232.049C200.885 224.219 227.799 192.24 227.799 154.088C227.799 150.895 225.211 148.307 222.018 148.307V148.307ZM181.893 284.437H114.11C116.497 277.687 122.942 272.838 130.5 272.838H165.502C173.058 272.838 179.503 277.687 181.893 284.437ZM153.483 261.276H142.517V233.695C144.33 233.82 146.157 233.887 148 233.887C149.843 233.887 151.67 233.82 153.483 233.695V261.276Z" fill="white"/>
<path d="M28.9062 54.0004C25.713 54.0004 23.125 56.5884 23.125 59.7816V116.214C23.125 119.405 25.713 121.995 28.9062 121.995C32.0995 121.995 34.6875 119.405 34.6875 116.214V59.7816C34.6875 56.5884 32.0995 54.0004 28.9062 54.0004Z" fill="white"/>
<path d="M75.1562 107.547C78.3495 107.547 80.9375 104.959 80.9375 101.766V74.2279C80.9375 71.0347 78.3495 68.4467 75.1562 68.4467C71.963 68.4467 69.375 71.0347 69.375 74.2279V101.766C69.375 104.959 71.963 107.547 75.1562 107.547Z" fill="white"/>
<path d="M5.78125 31.2187C2.58801 31.2187 0 33.8067 0 36.9999V133.16C0 136.354 2.58801 138.942 5.78125 138.942C8.97449 138.942 11.5625 136.354 11.5625 133.16V36.9999C11.5625 33.8067 8.97449 31.2187 5.78125 31.2187Z" fill="white"/>
<path d="M52.0312 48.1672C48.838 48.1672 46.25 50.7552 46.25 53.9484V132.092C46.25 135.286 48.838 137.874 52.0312 137.874C55.2245 137.874 57.8125 135.286 57.8125 132.092V53.9484C57.8125 50.7552 55.2245 48.1672 52.0312 48.1672Z" fill="white"/>
<path d="M267.094 54.0004C263.901 54.0004 261.312 56.5884 261.312 59.7816V116.214C261.312 119.405 263.901 121.995 267.094 121.995C270.287 121.995 272.875 119.405 272.875 116.214V59.7816C272.875 56.5884 270.287 54.0004 267.094 54.0004Z" fill="white"/>
<path d="M220.844 107.547C224.037 107.547 226.625 104.959 226.625 101.766V74.2279C226.625 71.0347 224.037 68.4467 220.844 68.4467C217.651 68.4467 215.062 71.0347 215.062 74.2279V101.766C215.062 104.959 217.651 107.547 220.844 107.547Z" fill="white"/>
<path d="M290.219 31.2187C287.026 31.2187 284.438 33.8067 284.438 36.9999V133.16C284.438 136.354 287.026 138.942 290.219 138.942C293.412 138.942 296 136.354 296 133.16V36.9999C296 33.8067 293.412 31.2187 290.219 31.2187Z" fill="white"/>
<path d="M243.969 126.313C242.449 126.313 240.956 126.928 239.881 128.003C238.806 129.084 238.188 130.57 238.188 132.095C238.188 133.617 238.806 135.107 239.881 136.182C240.956 137.259 242.449 137.876 243.969 137.876C245.489 137.876 246.981 137.259 248.056 136.182C249.131 135.107 249.75 133.617 249.75 132.095C249.75 130.57 249.131 129.084 248.056 128.003C246.981 126.928 245.489 126.313 243.969 126.313Z" fill="white"/>
<path d="M243.969 48.1672C240.776 48.1672 238.188 50.7552 238.188 53.9484V107.547C238.188 110.74 240.776 113.328 243.969 113.328C247.162 113.328 249.75 110.74 249.75 107.547V53.9484C249.75 50.7552 247.162 48.1672 243.969 48.1672Z" fill="white"/>
<path d="M148 184.132C164.567 184.132 178.047 170.655 178.047 154.088C178.047 150.895 175.456 148.307 172.265 148.307C169.072 148.307 166.484 150.895 166.484 154.088C166.484 164.278 158.192 172.57 148 172.57C144.807 172.57 142.219 175.158 142.219 178.351C142.219 181.544 144.807 184.132 148 184.132Z" fill="white"/>
<path d="M172.263 139.906C173.785 139.906 175.276 139.287 176.351 138.212C177.426 137.137 178.044 135.645 178.044 134.125C178.044 132.605 177.428 131.112 176.351 130.037C175.276 128.962 173.785 128.344 172.263 128.344C170.743 128.344 169.253 128.962 168.178 130.037C167.103 131.112 166.482 132.605 166.482 134.125C166.482 135.645 167.101 137.137 168.178 138.212C169.253 139.287 170.743 139.906 172.263 139.906Z" fill="white"/>
</svg>
